<svg width="24" height="24" fill="none" xmlns="http://www.w3.org/2000/svg"><path fill-rule="evenodd" clip-rule="evenodd" d="M21.333 6H2.667a.667.667 0 010-1.333h18.666a.667.667 0 110 1.333zm0 6.667H2.667a.667.667 0 010-1.334h18.666a.667.667 0 110 1.334zM2.667 19.333h18.666a.667.667 0 000-1.333H2.667a.667.667 0 000 1.333z" fill="#56CEFF"/><path fill-rule="evenodd" clip-rule="evenodd" d="M21.333 6H2.667a.667.667 0 010-1.333h18.666a.667.667 0 110 1.333zm0 6.667H2.667a.667.667 0 010-1.334h18.666a.667.667 0 110 1.334zM2.667 19.333h18.666a.667.667 0 000-1.333H2.667a.667.667 0 000 1.333z" fill="url(#paint0_linear)"/><defs><linearGradient id="paint0_linear" x1=".006" y1="1.74" x2="5.207" y2="20.868" gradientUnits="userSpaceOnUse"><stop offset=".055" stop-color="#E2F7FF"/><stop offset="1" stop-color="#56CDFE"/></linearGradient></defs></svg>