<svg width="16" height="16" fill="none" xmlns="http://www.w3.org/2000/svg"><path fill-rule="evenodd" clip-rule="evenodd" d="M15.947 10.831l-1.073-4.705c-.289-1.267-1.42-2.57-3.144-2.57H4.27a3.25 3.25 0 00-3.144 2.57L.053 10.831c-.29 1.277.648 2.502 1.92 2.502.542 0 1.05-.297 1.328-.776l.826-1.42a.785.785 0 01.675-.395h6.396c.275 0 .533.151.675.394l.826 1.421c.278.479.786.776 1.328.776 1.27 0 2.211-1.224 1.92-2.502zM5.992 7.633h-.535v.552c0 .268-.21.484-.47.484a.476.476 0 01-.468-.484v-.552h-.535a.476.476 0 01-.469-.484c0-.267.21-.484.469-.484h.535v-.553c0-.267.21-.483.469-.483s.469.216.469.483v.553h.535c.259 0 .469.217.469.484s-.21.484-.47.484zm4.016 0a.477.477 0 01-.469-.484c0-.267.21-.484.469-.484s.469.217.469.484-.21.484-.469.484zm1.004 1.036a.477.477 0 01-.469-.484c0-.267.21-.484.47-.484.258 0 .468.217.468.484s-.21.484-.469.484zm0-2.073a.477.477 0 01-.469-.484c0-.267.21-.483.47-.483.258 0 .468.216.468.483s-.21.484-.469.484zm1.004 1.037a.477.477 0 01-.469-.484c0-.267.21-.484.47-.484.258 0 .468.217.468.484s-.21.484-.469.484z" fill="#C1CDD4"/></svg>