<svg width="152" height="55" viewBox="0 0 152 55" fill="none" xmlns="http://www.w3.org/2000/svg">
<g filter="url(#filter0_d)">
<g filter="url(#filter1_d)">
<path d="M24.1807 23.6419H19.2086V20.8747H32.7488V23.6419H27.7766V35.549H24.1807V23.6419Z" stroke="#56CEFF" stroke-width="1.5"/>
<path d="M34.1793 24.2708H37.642V35.549H34.1793V24.2708ZM35.9106 22.6985C35.2743 22.6985 34.7564 22.5238 34.3568 22.1744C33.9573 21.825 33.7575 21.3918 33.7575 20.8747C33.7575 20.3576 33.9573 19.9244 34.3568 19.575C34.7564 19.2256 35.2743 19.0509 35.9106 19.0509C36.5469 19.0509 37.0649 19.2186 37.4644 19.554C37.864 19.8894 38.0637 20.3087 38.0637 20.8118C38.0637 21.3569 37.864 21.8111 37.4644 22.1744C37.0649 22.5238 36.5469 22.6985 35.9106 22.6985Z" stroke="#56CEFF" stroke-width="1.5"/>
<path d="M56.1495 24.1031C57.6441 24.1031 58.8279 24.5223 59.701 25.3609C60.5889 26.1854 61.0329 27.4292 61.0329 29.0923V35.549H57.5701V29.5955C57.5701 28.701 57.3703 28.0372 56.9708 27.6039C56.586 27.1567 56.0311 26.9331 55.306 26.9331C54.4921 26.9331 53.8484 27.1847 53.3749 27.6878C52.9013 28.1769 52.6646 28.9107 52.6646 29.8889V35.549H49.2018V29.5955C49.2018 27.8206 48.4471 26.9331 46.9377 26.9331C46.1386 26.9331 45.5023 27.1847 45.0288 27.6878C44.5552 28.1769 44.3185 28.9107 44.3185 29.8889V35.549H40.8557V24.2708H44.1631V25.5705C44.607 25.0953 45.1472 24.732 45.7835 24.4804C46.4346 24.2288 47.1449 24.1031 47.9144 24.1031C48.7579 24.1031 49.52 24.2638 50.2007 24.5852C50.8814 24.8927 51.4289 25.3469 51.8433 25.9478C52.3316 25.3609 52.9457 24.9067 53.6856 24.5852C54.4403 24.2638 55.2616 24.1031 56.1495 24.1031Z" stroke="#56CEFF" stroke-width="1.5"/>
<path d="M75.9645 29.9518C75.9645 29.9938 75.9423 30.2872 75.8979 30.8323H66.8637C67.0265 31.5311 67.4113 32.0831 68.018 32.4884C68.6247 32.8937 69.3794 33.0963 70.2821 33.0963C70.9036 33.0963 71.4511 33.0125 71.9247 32.8448C72.413 32.6631 72.8643 32.3836 73.2787 32.0062L75.121 33.8929C73.9964 35.1088 72.3538 35.7167 70.1933 35.7167C68.8467 35.7167 67.6554 35.4722 66.6196 34.983C65.5837 34.4799 64.7846 33.7881 64.2223 32.9077C63.66 32.0272 63.3788 31.0279 63.3788 29.9099C63.3788 28.8058 63.6526 27.8136 64.2001 26.9331C64.7624 26.0387 65.5245 25.3469 66.4864 24.8577C67.4631 24.3546 68.5507 24.1031 69.7494 24.1031C70.9184 24.1031 71.9765 24.3406 72.9235 24.8158C73.8706 25.291 74.6105 25.9758 75.1432 26.8702C75.6908 27.7507 75.9645 28.7779 75.9645 29.9518ZM69.7716 26.5767C68.9873 26.5767 68.3287 26.7864 67.796 27.2056C67.2633 27.6249 66.9377 28.1979 66.8193 28.9246H72.7016C72.5832 28.2119 72.2576 27.6459 71.7249 27.2266C71.1922 26.7934 70.5411 26.5767 69.7716 26.5767Z" stroke="#56CEFF" stroke-width="1.5"/>
<path d="M94.7002 35.549L91.7036 31.4612H88.3963V35.549H84.8004V20.8747H91.5261C92.9023 20.8747 94.0935 21.0913 95.0998 21.5246C96.1209 21.9578 96.9052 22.5727 97.4527 23.3693C98.0002 24.166 98.274 25.1093 98.274 26.1994C98.274 27.2895 97.9928 28.2328 97.4305 29.0294C96.883 29.8121 96.0987 30.413 95.0776 30.8323L98.5625 35.549H94.7002ZM94.6337 26.1994C94.6337 25.3748 94.3525 24.7459 93.7902 24.3127C93.2278 23.8655 92.4066 23.6419 91.3263 23.6419H88.3963V28.7569H91.3263C92.4066 28.7569 93.2278 28.5333 93.7902 28.0861C94.3525 27.6389 94.6337 27.01 94.6337 26.1994Z" stroke="#56CEFF" stroke-width="1.5"/>
<path d="M100.879 24.2708H104.342V35.549H100.879V24.2708ZM102.61 22.6985C101.974 22.6985 101.456 22.5238 101.056 22.1744C100.657 21.825 100.457 21.3918 100.457 20.8747C100.457 20.3576 100.657 19.9244 101.056 19.575C101.456 19.2256 101.974 19.0509 102.61 19.0509C103.247 19.0509 103.764 19.2186 104.164 19.554C104.564 19.8894 104.763 20.3087 104.763 20.8118C104.763 21.3569 104.564 21.8111 104.164 22.1744C103.764 22.5238 103.247 22.6985 102.61 22.6985Z" stroke="#56CEFF" stroke-width="1.5"/>
<path d="M113.327 35.7167C112.054 35.7167 110.907 35.4722 109.886 34.983C108.88 34.4799 108.088 33.7881 107.511 32.9077C106.949 32.0272 106.667 31.0279 106.667 29.9099C106.667 28.7919 106.949 27.7926 107.511 26.9121C108.088 26.0317 108.88 25.3469 109.886 24.8577C110.907 24.3546 112.054 24.1031 113.327 24.1031C114.584 24.1031 115.679 24.3546 116.612 24.8577C117.559 25.3469 118.247 26.0527 118.676 26.975L115.99 28.3377C115.369 27.3035 114.473 26.7864 113.304 26.7864C112.402 26.7864 111.654 27.0659 111.062 27.6249C110.471 28.1839 110.175 28.9456 110.175 29.9099C110.175 30.8742 110.471 31.6359 111.062 32.1949C111.654 32.7539 112.402 33.0334 113.304 33.0334C114.488 33.0334 115.383 32.5163 115.99 31.4822L118.676 32.8657C118.247 33.7602 117.559 34.4589 116.612 34.9621C115.679 35.4652 114.584 35.7167 113.327 35.7167Z" stroke="#56CEFF" stroke-width="1.5"/>
<path d="M127.842 24.1031C129.321 24.1031 130.513 24.5223 131.415 25.3609C132.333 26.1994 132.791 27.4432 132.791 29.0923V35.549H129.329V29.5955C129.329 28.701 129.122 28.0372 128.707 27.6039C128.293 27.1567 127.694 26.9331 126.909 26.9331C126.036 26.9331 125.341 27.1917 124.823 27.7088C124.305 28.2119 124.046 28.9666 124.046 29.9728V35.549H120.583V19.9943H124.046V25.4447C124.505 25.0115 125.059 24.683 125.711 24.4594C126.362 24.2219 127.072 24.1031 127.842 24.1031Z" stroke="#56CEFF" stroke-width="1.5"/>
</g>
<path d="M24.1807 23.6419H19.2086V20.8747H32.7488V23.6419H27.7766V35.549H24.1807V23.6419Z" stroke="url(#paint0_linear)"/>
<path d="M34.1793 24.2708H37.642V35.549H34.1793V24.2708ZM35.9106 22.6985C35.2743 22.6985 34.7564 22.5238 34.3568 22.1744C33.9573 21.825 33.7575 21.3918 33.7575 20.8747C33.7575 20.3576 33.9573 19.9244 34.3568 19.575C34.7564 19.2256 35.2743 19.0509 35.9106 19.0509C36.5469 19.0509 37.0649 19.2186 37.4644 19.554C37.864 19.8894 38.0637 20.3087 38.0637 20.8118C38.0637 21.3569 37.864 21.8111 37.4644 22.1744C37.0649 22.5238 36.5469 22.6985 35.9106 22.6985Z" stroke="url(#paint1_linear)"/>
<path d="M56.1495 24.1031C57.6441 24.1031 58.8279 24.5223 59.701 25.3609C60.5889 26.1854 61.0329 27.4292 61.0329 29.0923V35.549H57.5701V29.5955C57.5701 28.701 57.3703 28.0372 56.9708 27.6039C56.586 27.1567 56.0311 26.9331 55.306 26.9331C54.4921 26.9331 53.8484 27.1847 53.3749 27.6878C52.9013 28.1769 52.6646 28.9107 52.6646 29.8889V35.549H49.2018V29.5955C49.2018 27.8206 48.4471 26.9331 46.9377 26.9331C46.1386 26.9331 45.5023 27.1847 45.0288 27.6878C44.5552 28.1769 44.3185 28.9107 44.3185 29.8889V35.549H40.8557V24.2708H44.1631V25.5705C44.607 25.0953 45.1472 24.732 45.7835 24.4804C46.4346 24.2288 47.1449 24.1031 47.9144 24.1031C48.7579 24.1031 49.52 24.2638 50.2007 24.5852C50.8814 24.8927 51.4289 25.3469 51.8433 25.9478C52.3316 25.3609 52.9457 24.9067 53.6856 24.5852C54.4403 24.2638 55.2616 24.1031 56.1495 24.1031Z" stroke="url(#paint2_linear)"/>
<path d="M75.9645 29.9518C75.9645 29.9938 75.9423 30.2872 75.8979 30.8323H66.8637C67.0265 31.5311 67.4113 32.0831 68.018 32.4884C68.6247 32.8937 69.3794 33.0963 70.2821 33.0963C70.9036 33.0963 71.4511 33.0125 71.9247 32.8448C72.413 32.6631 72.8643 32.3836 73.2787 32.0062L75.121 33.8929C73.9964 35.1088 72.3538 35.7167 70.1933 35.7167C68.8467 35.7167 67.6554 35.4722 66.6196 34.983C65.5837 34.4799 64.7846 33.7881 64.2223 32.9077C63.66 32.0272 63.3788 31.0279 63.3788 29.9099C63.3788 28.8058 63.6526 27.8136 64.2001 26.9331C64.7624 26.0387 65.5245 25.3469 66.4864 24.8577C67.4631 24.3546 68.5507 24.1031 69.7494 24.1031C70.9184 24.1031 71.9765 24.3406 72.9235 24.8158C73.8706 25.291 74.6105 25.9758 75.1432 26.8702C75.6908 27.7507 75.9645 28.7779 75.9645 29.9518ZM69.7716 26.5767C68.9873 26.5767 68.3287 26.7864 67.796 27.2056C67.2633 27.6249 66.9377 28.1979 66.8193 28.9246H72.7016C72.5832 28.2119 72.2576 27.6459 71.7249 27.2266C71.1922 26.7934 70.5411 26.5767 69.7716 26.5767Z" stroke="url(#paint3_linear)"/>
<path d="M94.7002 35.549L91.7036 31.4612H88.3963V35.549H84.8004V20.8747H91.5261C92.9023 20.8747 94.0935 21.0913 95.0998 21.5246C96.1209 21.9578 96.9052 22.5727 97.4527 23.3693C98.0002 24.166 98.274 25.1093 98.274 26.1994C98.274 27.2895 97.9928 28.2328 97.4305 29.0294C96.883 29.8121 96.0987 30.413 95.0776 30.8323L98.5625 35.549H94.7002ZM94.6337 26.1994C94.6337 25.3748 94.3525 24.7459 93.7902 24.3127C93.2278 23.8655 92.4066 23.6419 91.3263 23.6419H88.3963V28.7569H91.3263C92.4066 28.7569 93.2278 28.5333 93.7902 28.0861C94.3525 27.6389 94.6337 27.01 94.6337 26.1994Z" stroke="url(#paint4_linear)"/>
<path d="M100.879 24.2708H104.342V35.549H100.879V24.2708ZM102.61 22.6985C101.974 22.6985 101.456 22.5238 101.056 22.1744C100.657 21.825 100.457 21.3918 100.457 20.8747C100.457 20.3576 100.657 19.9244 101.056 19.575C101.456 19.2256 101.974 19.0509 102.61 19.0509C103.247 19.0509 103.764 19.2186 104.164 19.554C104.564 19.8894 104.763 20.3087 104.763 20.8118C104.763 21.3569 104.564 21.8111 104.164 22.1744C103.764 22.5238 103.247 22.6985 102.61 22.6985Z" stroke="url(#paint5_linear)"/>
<path d="M113.327 35.7167C112.054 35.7167 110.907 35.4722 109.886 34.983C108.88 34.4799 108.088 33.7881 107.511 32.9077C106.949 32.0272 106.667 31.0279 106.667 29.9099C106.667 28.7919 106.949 27.7926 107.511 26.9121C108.088 26.0317 108.88 25.3469 109.886 24.8577C110.907 24.3546 112.054 24.1031 113.327 24.1031C114.584 24.1031 115.679 24.3546 116.612 24.8577C117.559 25.3469 118.247 26.0527 118.676 26.975L115.99 28.3377C115.369 27.3035 114.473 26.7864 113.304 26.7864C112.402 26.7864 111.654 27.0659 111.062 27.6249C110.471 28.1839 110.175 28.9456 110.175 29.9099C110.175 30.8742 110.471 31.6359 111.062 32.1949C111.654 32.7539 112.402 33.0334 113.304 33.0334C114.488 33.0334 115.383 32.5163 115.99 31.4822L118.676 32.8657C118.247 33.7602 117.559 34.4589 116.612 34.9621C115.679 35.4652 114.584 35.7167 113.327 35.7167Z" stroke="url(#paint6_linear)"/>
<path d="M127.842 24.1031C129.321 24.1031 130.513 24.5223 131.415 25.3609C132.333 26.1994 132.791 27.4432 132.791 29.0923V35.549H129.329V29.5955C129.329 28.701 129.122 28.0372 128.707 27.6039C128.293 27.1567 127.694 26.9331 126.909 26.9331C126.036 26.9331 125.341 27.1917 124.823 27.7088C124.305 28.2119 124.046 28.9666 124.046 29.9728V35.549H120.583V19.9943H124.046V25.4447C124.505 25.0115 125.059 24.683 125.711 24.4594C126.362 24.2219 127.072 24.1031 127.842 24.1031Z" stroke="url(#paint7_linear)"/>
<path d="M24.1807 23.6419H19.2086V20.8747H32.7488V23.6419H27.7766V35.549H24.1807V23.6419Z" stroke="white" stroke-width="0.5"/>
<path d="M34.1793 24.2708H37.642V35.549H34.1793V24.2708ZM35.9106 22.6985C35.2743 22.6985 34.7564 22.5238 34.3568 22.1744C33.9573 21.825 33.7575 21.3918 33.7575 20.8747C33.7575 20.3576 33.9573 19.9244 34.3568 19.575C34.7564 19.2256 35.2743 19.0509 35.9106 19.0509C36.5469 19.0509 37.0649 19.2186 37.4644 19.554C37.864 19.8894 38.0637 20.3087 38.0637 20.8118C38.0637 21.3569 37.864 21.8111 37.4644 22.1744C37.0649 22.5238 36.5469 22.6985 35.9106 22.6985Z" stroke="white" stroke-width="0.5"/>
<path d="M56.1495 24.1031C57.6441 24.1031 58.8279 24.5223 59.701 25.3609C60.5889 26.1854 61.0329 27.4292 61.0329 29.0923V35.549H57.5701V29.5955C57.5701 28.701 57.3703 28.0372 56.9708 27.6039C56.586 27.1567 56.0311 26.9331 55.306 26.9331C54.4921 26.9331 53.8484 27.1847 53.3749 27.6878C52.9013 28.1769 52.6646 28.9107 52.6646 29.8889V35.549H49.2018V29.5955C49.2018 27.8206 48.4471 26.9331 46.9377 26.9331C46.1386 26.9331 45.5023 27.1847 45.0288 27.6878C44.5552 28.1769 44.3185 28.9107 44.3185 29.8889V35.549H40.8557V24.2708H44.1631V25.5705C44.607 25.0953 45.1472 24.732 45.7835 24.4804C46.4346 24.2288 47.1449 24.1031 47.9144 24.1031C48.7579 24.1031 49.52 24.2638 50.2007 24.5852C50.8814 24.8927 51.4289 25.3469 51.8433 25.9478C52.3316 25.3609 52.9457 24.9067 53.6856 24.5852C54.4403 24.2638 55.2616 24.1031 56.1495 24.1031Z" stroke="white" stroke-width="0.5"/>
<path d="M75.9645 29.9518C75.9645 29.9938 75.9423 30.2872 75.8979 30.8323H66.8637C67.0265 31.5311 67.4113 32.0831 68.018 32.4884C68.6247 32.8937 69.3794 33.0963 70.2821 33.0963C70.9036 33.0963 71.4511 33.0125 71.9247 32.8448C72.413 32.6631 72.8643 32.3836 73.2787 32.0062L75.121 33.8929C73.9964 35.1088 72.3538 35.7167 70.1933 35.7167C68.8467 35.7167 67.6554 35.4722 66.6196 34.983C65.5837 34.4799 64.7846 33.7881 64.2223 32.9077C63.66 32.0272 63.3788 31.0279 63.3788 29.9099C63.3788 28.8058 63.6526 27.8136 64.2001 26.9331C64.7624 26.0387 65.5245 25.3469 66.4864 24.8577C67.4631 24.3546 68.5507 24.1031 69.7494 24.1031C70.9184 24.1031 71.9765 24.3406 72.9235 24.8158C73.8706 25.291 74.6105 25.9758 75.1432 26.8702C75.6908 27.7507 75.9645 28.7779 75.9645 29.9518ZM69.7716 26.5767C68.9873 26.5767 68.3287 26.7864 67.796 27.2056C67.2633 27.6249 66.9377 28.1979 66.8193 28.9246H72.7016C72.5832 28.2119 72.2576 27.6459 71.7249 27.2266C71.1922 26.7934 70.5411 26.5767 69.7716 26.5767Z" stroke="white" stroke-width="0.5"/>
<path d="M94.7002 35.549L91.7036 31.4612H88.3963V35.549H84.8004V20.8747H91.5261C92.9023 20.8747 94.0935 21.0913 95.0998 21.5246C96.1209 21.9578 96.9052 22.5727 97.4527 23.3693C98.0002 24.166 98.274 25.1093 98.274 26.1994C98.274 27.2895 97.9928 28.2328 97.4305 29.0294C96.883 29.8121 96.0987 30.413 95.0776 30.8323L98.5625 35.549H94.7002ZM94.6337 26.1994C94.6337 25.3748 94.3525 24.7459 93.7902 24.3127C93.2278 23.8655 92.4066 23.6419 91.3263 23.6419H88.3963V28.7569H91.3263C92.4066 28.7569 93.2278 28.5333 93.7902 28.0861C94.3525 27.6389 94.6337 27.01 94.6337 26.1994Z" stroke="white" stroke-width="0.5"/>
<path d="M100.879 24.2708H104.342V35.549H100.879V24.2708ZM102.61 22.6985C101.974 22.6985 101.456 22.5238 101.056 22.1744C100.657 21.825 100.457 21.3918 100.457 20.8747C100.457 20.3576 100.657 19.9244 101.056 19.575C101.456 19.2256 101.974 19.0509 102.61 19.0509C103.247 19.0509 103.764 19.2186 104.164 19.554C104.564 19.8894 104.763 20.3087 104.763 20.8118C104.763 21.3569 104.564 21.8111 104.164 22.1744C103.764 22.5238 103.247 22.6985 102.61 22.6985Z" stroke="white" stroke-width="0.5"/>
<path d="M113.327 35.7167C112.054 35.7167 110.907 35.4722 109.886 34.983C108.88 34.4799 108.088 33.7881 107.511 32.9077C106.949 32.0272 106.667 31.0279 106.667 29.9099C106.667 28.7919 106.949 27.7926 107.511 26.9121C108.088 26.0317 108.88 25.3469 109.886 24.8577C110.907 24.3546 112.054 24.1031 113.327 24.1031C114.584 24.1031 115.679 24.3546 116.612 24.8577C117.559 25.3469 118.247 26.0527 118.676 26.975L115.99 28.3377C115.369 27.3035 114.473 26.7864 113.304 26.7864C112.402 26.7864 111.654 27.0659 111.062 27.6249C110.471 28.1839 110.175 28.9456 110.175 29.9099C110.175 30.8742 110.471 31.6359 111.062 32.1949C111.654 32.7539 112.402 33.0334 113.304 33.0334C114.488 33.0334 115.383 32.5163 115.99 31.4822L118.676 32.8657C118.247 33.7602 117.559 34.4589 116.612 34.9621C115.679 35.4652 114.584 35.7167 113.327 35.7167Z" stroke="white" stroke-width="0.5"/>
<path d="M127.842 24.1031C129.321 24.1031 130.513 24.5223 131.415 25.3609C132.333 26.1994 132.791 27.4432 132.791 29.0923V35.549H129.329V29.5955C129.329 28.701 129.122 28.0372 128.707 27.6039C128.293 27.1567 127.694 26.9331 126.909 26.9331C126.036 26.9331 125.341 27.1917 124.823 27.7088C124.305 28.2119 124.046 28.9666 124.046 29.9728V35.549H120.583V19.9943H124.046V25.4447C124.505 25.0115 125.059 24.683 125.711 24.4594C126.362 24.2219 127.072 24.1031 127.842 24.1031Z" stroke="white" stroke-width="0.5"/>
</g>
<defs>
<filter id="filter0_d" x="-2" y="-6" width="156" height="68.0497" filterUnits="userSpaceOnUse" color-interpolation-filters="sRGB">
<feFlood flood-opacity="0" result="BackgroundImageFix"/>
<feColorMatrix in="SourceAlpha" type="matrix" values="0 0 0 0 0 0 0 0 0 0 0 0 0 0 0 0 0 0 127 0"/>
<feOffset/>
<feGaussianBlur stdDeviation="9"/>
<feColorMatrix type="matrix" values="0 0 0 0 0.421424 0 0 0 0 0.858273 0 0 0 0 0.954167 0 0 0 1 0"/>
<feBlend mode="normal" in2="BackgroundImageFix" result="effect1_dropShadow"/>
<feBlend mode="normal" in="SourceGraphic" in2="effect1_dropShadow" result="shape"/>
</filter>
<filter id="filter1_d" x="10.4586" y="10.3009" width="131.083" height="34.1658" filterUnits="userSpaceOnUse" color-interpolation-filters="sRGB">
<feFlood flood-opacity="0" result="BackgroundImageFix"/>
<feColorMatrix in="SourceAlpha" type="matrix" values="0 0 0 0 0 0 0 0 0 0 0 0 0 0 0 0 0 0 127 0"/>
<feOffset/>
<feGaussianBlur stdDeviation="4"/>
<feColorMatrix type="matrix" values="0 0 0 0 0.421424 0 0 0 0 0.858273 0 0 0 0 0.954167 0 0 0 1 0"/>
<feBlend mode="normal" in2="BackgroundImageFix" result="effect1_dropShadow"/>
<feBlend mode="normal" in="SourceGraphic" in2="effect1_dropShadow" result="shape"/>
</filter>
<linearGradient id="paint0_linear" x1="53.5401" y1="9.75649" x2="47.304" y2="26.2357" gradientUnits="userSpaceOnUse">
<stop stop-color="#CBF0FF"/>
<stop offset="0.494792" stop-color="#E1F6FF"/>
<stop offset="1" stop-color="#39C5FD"/>
</linearGradient>
<linearGradient id="paint1_linear" x1="53.5401" y1="9.75649" x2="47.304" y2="26.2357" gradientUnits="userSpaceOnUse">
<stop stop-color="#CBF0FF"/>
<stop offset="0.494792" stop-color="#E1F6FF"/>
<stop offset="1" stop-color="#39C5FD"/>
</linearGradient>
<linearGradient id="paint2_linear" x1="53.5401" y1="9.75649" x2="47.304" y2="26.2357" gradientUnits="userSpaceOnUse">
<stop stop-color="#CBF0FF"/>
<stop offset="0.494792" stop-color="#E1F6FF"/>
<stop offset="1" stop-color="#39C5FD"/>
</linearGradient>
<linearGradient id="paint3_linear" x1="53.5401" y1="9.75649" x2="47.304" y2="26.2357" gradientUnits="userSpaceOnUse">
<stop stop-color="#CBF0FF"/>
<stop offset="0.494792" stop-color="#E1F6FF"/>
<stop offset="1" stop-color="#39C5FD"/>
</linearGradient>
<linearGradient id="paint4_linear" x1="53.5401" y1="9.75649" x2="47.304" y2="26.2357" gradientUnits="userSpaceOnUse">
<stop stop-color="#CBF0FF"/>
<stop offset="0.494792" stop-color="#E1F6FF"/>
<stop offset="1" stop-color="#39C5FD"/>
</linearGradient>
<linearGradient id="paint5_linear" x1="53.5401" y1="9.75649" x2="47.304" y2="26.2357" gradientUnits="userSpaceOnUse">
<stop stop-color="#CBF0FF"/>
<stop offset="0.494792" stop-color="#E1F6FF"/>
<stop offset="1" stop-color="#39C5FD"/>
</linearGradient>
<linearGradient id="paint6_linear" x1="53.5401" y1="9.75649" x2="47.304" y2="26.2357" gradientUnits="userSpaceOnUse">
<stop stop-color="#CBF0FF"/>
<stop offset="0.494792" stop-color="#E1F6FF"/>
<stop offset="1" stop-color="#39C5FD"/>
</linearGradient>
<linearGradient id="paint7_linear" x1="53.5401" y1="9.75649" x2="47.304" y2="26.2357" gradientUnits="userSpaceOnUse">
<stop stop-color="#CBF0FF"/>
<stop offset="0.494792" stop-color="#E1F6FF"/>
<stop offset="1" stop-color="#39C5FD"/>
</linearGradient>
</defs>
</svg>
